<svg width="580" height="200" xmlns="http://www.w3.org/2000/svg">
 <!-- Created with Method Draw - http://github.com/duopixel/Method-Draw/ -->
 <g>
  <title>background</title>
  <rect fill="#fff" id="canvas_background" height="202" width="582" y="-1" x="-1"/>
  <g display="none" overflow="visible" y="0" x="0" height="100%" width="100%" id="canvasGrid">
   <rect fill="url(#gridpattern)" stroke-width="0" y="0" x="0" height="100%" width="100%"/>
  </g>
 </g>
 <g>
  <title>Layer 1</title>
  <path stroke="#000" id="svg_1" d="m-16.5,210.93309c0,0 99.66216,-172.6483 176.43586,-107.47939c76.77371,65.1689 109.64941,111.80742 109.151,111.80742c0.49841,0 90.06175,-164.66422 212.81952,-163.74378c122.75777,0.92044 163.59522,189.48266 127.09363,195.48266c-36.50159,6 -625.50001,-36.06691 -625.50001,-36.06691z" stroke-width="1.5" fill="#fff"/>
  <path stroke="#000" id="svg_3" d="m153.85186,225.030975c-162.205935,-20.23988 119.323906,-155.718012 136.10383,-113.147621c16.779924,42.570392 130.510522,150.116645 130.044413,150.116645" opacity="0.5" fill-opacity="null" stroke-opacity="null" stroke-width="1.5" fill="#fff"/>
 </g>
</svg>
