<?xml version="1.0" encoding="UTF-8"?>
<svg viewBox="0 0 744.09448 1052.3622" xmlns="http://www.w3.org/2000/svg">
 <path d="m371.74 324.66c-6.4438 17.916-30.628 31.804-44.713 48.996-27.593 33.677-51.79 69.926-75.591 103.2-49.671 69.444-48.026 141.08-29.207 212.41 78.158 148.48 255.52 145.24 340.42 2.5414 32.271-96.147 0.30937-179-64.098-251.21-21.288-23.869-36.352-44.136-63.292-65.809-20.04-16.122-53.807-33.818-63.516-50.122z" fill="#9acd32" fill-rule="evenodd"/>
 <path d="m373.84 475.57 1.7812 51.62 1.7812 76.562-65.875-33.812 15.369 18.282 54.061 42.245-7.1199 58.728-78.31-58.755 1.7812 12.469 46.744 38.851 23.926 22.628 2.2969 16.864 10.595 113.87-17.718 105.08 81.887 3.5615-18.349-66.554-22.57-155.95 29.346-41.895 57.873-41.792-3.5656-16.023-81.903 64.086-3.5333-72.967 38.827-28.676 19.894-24.732-60.5 33.812-12.474-129.96z" fill="#8b4513" fill-rule="evenodd"/>
 <path transform="matrix(.66066 0 0 .66066 165.65 151.49)" d="m168.64 790.52a22.253 22.253 0 1 1 -0.0248 -0.11597l-21.747 4.718z" fill="#f00"/>
 <path transform="matrix(.66066 0 0 .66066 378.39 166.6)" d="m168.64 790.52a22.253 22.253 0 1 1 -0.0248 -0.11597l-21.747 4.718z" fill="#f00"/>
 <path transform="matrix(.66066 0 0 .66066 436.29 120.02)" d="m168.64 790.52a22.253 22.253 0 1 1 -0.0248 -0.11597l-21.747 4.718z" fill="#f00"/>
 <path transform="matrix(.66066 0 0 .66066 208.45 -26.001)" d="m168.64 790.52a22.253 22.253 0 1 1 -0.0248 -0.11597l-21.747 4.718z" fill="#f00"/>
 <path transform="matrix(.66066 0 0 .66066 246.21 221.98)" d="m168.64 790.52a22.253 22.253 0 1 1 -0.0248 -0.11597l-21.747 4.718z" fill="#f00"/>
 <path transform="matrix(.66066 0 0 .66066 160.61 65.892)" d="m168.64 790.52a22.253 22.253 0 1 1 -0.0248 -0.11597l-21.747 4.718z" fill="#f00"/>
 <path transform="matrix(.66066 0 0 .66066 353.21 234.57)" d="m168.64 790.52a22.253 22.253 0 1 1 -0.0248 -0.11597l-21.747 4.718z" fill="#f00"/>
 <path transform="matrix(.66066 0 0 .66066 394.75 65.892)" d="m168.64 790.52a22.253 22.253 0 1 1 -0.0248 -0.11597l-21.747 4.718z" fill="#f00"/>
 <path transform="matrix(.66066 0 0 .66066 417.41 -2.084)" d="m168.64 790.52a22.253 22.253 0 1 1 -0.0248 -0.11597l-21.747 4.718z" fill="#f00"/>
 <path transform="matrix(.66066 0 0 .66066 241.18 98.62)" d="m168.64 790.52a22.253 22.253 0 1 1 -0.0248 -0.11597l-21.747 4.718z" fill="#f00"/>
 <path transform="matrix(.66066 0 0 .66066 285.24 -119.15)" d="m168.64 790.52a22.253 22.253 0 1 1 -0.0248 -0.11597l-21.747 4.718z" fill="#f00"/>
 <path transform="matrix(.66066 0 0 .66066 346.92 -38.589)" d="m168.64 790.52a22.253 22.253 0 1 1 -0.0248 -0.11597l-21.747 4.718z" fill="#f00"/>
</svg>
